<mxfile host="app.diagrams.net" modified="2020-10-06T12:33:50.580Z" agent="5.0 (Windows)" etag="Ug6vONxqxCtsQQBbybxK" version="13.7.7" type="github">
  <diagram id="ywgBx7ZzWdUhMpDVQwn4" name="Page-1">
    <mxGraphModel dx="910" dy="487" grid="1" gridSize="10" guides="1" tooltips="1" connect="1" arrows="1" fold="1" page="1" pageScale="1" pageWidth="1169" pageHeight="827" math="0" shadow="0">
      <root>
        <mxCell id="0" />
        <mxCell id="1" parent="0" />
        <mxCell id="KN6vx_3-4_OPMnxoI5xO-1" value="Plenary -&amp;nbsp; Statements and Motions" style="swimlane;html=1;childLayout=stackLayout;resizeParent=1;resizeParentMax=0;horizontal=1;startSize=20;horizontalStack=0;" vertex="1" parent="1">
          <mxGeometry x="20" y="20" width="1140" height="690" as="geometry" />
        </mxCell>
        <mxCell id="KN6vx_3-4_OPMnxoI5xO-2" value="Table Office" style="swimlane;html=1;startSize=20;horizontal=0;" vertex="1" parent="KN6vx_3-4_OPMnxoI5xO-1">
          <mxGeometry y="20" width="1140" height="180" as="geometry" />
        </mxCell>
        <mxCell id="KN6vx_3-4_OPMnxoI5xO-12" value="Start" style="rounded=1;whiteSpace=wrap;html=1;" vertex="1" parent="KN6vx_3-4_OPMnxoI5xO-2">
          <mxGeometry x="80" y="10" width="100" height="40" as="geometry" />
        </mxCell>
        <mxCell id="KN6vx_3-4_OPMnxoI5xO-15" value="Notification of receipt of statement/ Motion MCA" style="rounded=0;whiteSpace=wrap;html=1;" vertex="1" parent="KN6vx_3-4_OPMnxoI5xO-2">
          <mxGeometry x="60" y="120" width="140" height="50" as="geometry" />
        </mxCell>
        <mxCell id="KN6vx_3-4_OPMnxoI5xO-14" value="" style="edgeStyle=orthogonalEdgeStyle;rounded=0;orthogonalLoop=1;jettySize=auto;html=1;entryX=0.5;entryY=0;entryDx=0;entryDy=0;" edge="1" parent="KN6vx_3-4_OPMnxoI5xO-2" source="KN6vx_3-4_OPMnxoI5xO-12" target="KN6vx_3-4_OPMnxoI5xO-15">
          <mxGeometry relative="1" as="geometry">
            <mxPoint x="130" y="120" as="targetPoint" />
          </mxGeometry>
        </mxCell>
        <mxCell id="KN6vx_3-4_OPMnxoI5xO-24" value="Admissible?" style="rhombus;whiteSpace=wrap;html=1;" vertex="1" parent="KN6vx_3-4_OPMnxoI5xO-2">
          <mxGeometry x="290" y="69" width="80" height="80" as="geometry" />
        </mxCell>
        <mxCell id="KN6vx_3-4_OPMnxoI5xO-3" value="Clerk" style="swimlane;html=1;startSize=20;horizontal=0;" vertex="1" parent="KN6vx_3-4_OPMnxoI5xO-1">
          <mxGeometry y="200" width="1140" height="130" as="geometry" />
        </mxCell>
        <mxCell id="KN6vx_3-4_OPMnxoI5xO-21" value="Note to Table Office to check Admissibility" style="shape=callout;whiteSpace=wrap;html=1;perimeter=calloutPerimeter;" vertex="1" parent="KN6vx_3-4_OPMnxoI5xO-3">
          <mxGeometry x="270" y="42" width="120" height="80" as="geometry" />
        </mxCell>
        <mxCell id="KN6vx_3-4_OPMnxoI5xO-16" value="Receive written and signed statement/ motion from MCA" style="whiteSpace=wrap;html=1;rounded=0;" vertex="1" parent="KN6vx_3-4_OPMnxoI5xO-3">
          <mxGeometry x="70" y="42" width="120" height="50" as="geometry" />
        </mxCell>
        <mxCell id="KN6vx_3-4_OPMnxoI5xO-19" value="" style="edgeStyle=orthogonalEdgeStyle;rounded=0;orthogonalLoop=1;jettySize=auto;html=1;entryX=0;entryY=0;entryDx=0;entryDy=25;entryPerimeter=0;" edge="1" parent="KN6vx_3-4_OPMnxoI5xO-3" source="KN6vx_3-4_OPMnxoI5xO-16" target="KN6vx_3-4_OPMnxoI5xO-21">
          <mxGeometry relative="1" as="geometry">
            <mxPoint x="270" y="79.5" as="targetPoint" />
          </mxGeometry>
        </mxCell>
        <mxCell id="KN6vx_3-4_OPMnxoI5xO-4" value="Speaker" style="swimlane;html=1;startSize=20;horizontal=0;" vertex="1" parent="KN6vx_3-4_OPMnxoI5xO-1">
          <mxGeometry y="330" width="1140" height="120" as="geometry" />
        </mxCell>
        <mxCell id="KN6vx_3-4_OPMnxoI5xO-28" value="Approved?" style="rhombus;whiteSpace=wrap;html=1;" vertex="1" parent="KN6vx_3-4_OPMnxoI5xO-4">
          <mxGeometry x="450" y="-40" width="80" height="80" as="geometry" />
        </mxCell>
        <mxCell id="KN6vx_3-4_OPMnxoI5xO-5" value="Clerk Assistant" style="swimlane;html=1;startSize=20;horizontal=0;" vertex="1" parent="KN6vx_3-4_OPMnxoI5xO-1">
          <mxGeometry y="450" width="1140" height="120" as="geometry" />
        </mxCell>
        <mxCell id="KN6vx_3-4_OPMnxoI5xO-11" value="HBC Assistant" style="swimlane;html=1;startSize=20;horizontal=0;" vertex="1" parent="KN6vx_3-4_OPMnxoI5xO-1">
          <mxGeometry y="570" width="1140" height="120" as="geometry" />
        </mxCell>
        <mxCell id="KN6vx_3-4_OPMnxoI5xO-17" value="" style="edgeStyle=orthogonalEdgeStyle;rounded=0;orthogonalLoop=1;jettySize=auto;html=1;" edge="1" parent="KN6vx_3-4_OPMnxoI5xO-1" source="KN6vx_3-4_OPMnxoI5xO-15" target="KN6vx_3-4_OPMnxoI5xO-16">
          <mxGeometry relative="1" as="geometry" />
        </mxCell>
        <mxCell id="KN6vx_3-4_OPMnxoI5xO-25" value="" style="edgeStyle=orthogonalEdgeStyle;rounded=0;orthogonalLoop=1;jettySize=auto;html=1;" edge="1" parent="KN6vx_3-4_OPMnxoI5xO-1" source="KN6vx_3-4_OPMnxoI5xO-21" target="KN6vx_3-4_OPMnxoI5xO-24">
          <mxGeometry relative="1" as="geometry" />
        </mxCell>
        <mxCell id="KN6vx_3-4_OPMnxoI5xO-29" value="" style="edgeStyle=orthogonalEdgeStyle;rounded=0;orthogonalLoop=1;jettySize=auto;html=1;" edge="1" parent="1" source="KN6vx_3-4_OPMnxoI5xO-26" target="KN6vx_3-4_OPMnxoI5xO-28">
          <mxGeometry relative="1" as="geometry" />
        </mxCell>
        <mxCell id="KN6vx_3-4_OPMnxoI5xO-26" value="Forward for approval" style="whiteSpace=wrap;html=1;" vertex="1" parent="1">
          <mxGeometry x="450" y="119" width="120" height="60" as="geometry" />
        </mxCell>
        <mxCell id="KN6vx_3-4_OPMnxoI5xO-27" value="" style="edgeStyle=orthogonalEdgeStyle;rounded=0;orthogonalLoop=1;jettySize=auto;html=1;" edge="1" parent="1" source="KN6vx_3-4_OPMnxoI5xO-24" target="KN6vx_3-4_OPMnxoI5xO-26">
          <mxGeometry relative="1" as="geometry" />
        </mxCell>
      </root>
    </mxGraphModel>
  </diagram>
</mxfile>
